<svg xmlns="http://www.w3.org/2000/svg" xmlns:xlink="http://www.w3.org/1999/xlink" viewBox="0 0 512 512"><defs><style>.cls-1{fill:none;}.cls-2{clip-path:url(#clip-path);}.cls-3{fill:#f5f5f5;}</style><clipPath id="clip-path"><circle class="cls-1" cx="256" cy="256" r="256"/></clipPath></defs><title>eiger-logo-contrast</title><g id="Layer_2" data-name="Layer 2"><g id="logo-contrast-masked"><g class="cls-2"><path class="cls-3" d="M331.08,322.47a12.37868,12.37868,0,0,0-6.32-1.53,9.32417,9.32417,0,0,0-8.86,5.38q-2.805,5.38495-2.8,14.05v1.19q0,8.04,2.71,12.66,2.73,4.605,8.84,4.61a13.60917,13.60917,0,0,0,6.43-1.39,10.58816,10.58816,0,0,0,4.22-4.05V326.77A11.46716,11.46716,0,0,0,331.08,322.47Zm66.04,1.5c-1.64-2.1-4.12-3.14-7.45-3.14a8.62986,8.62986,0,0,0-7.25,3.51,18.277,18.277,0,0,0-3.28,9.23l.17.28h20.28v-1.47A13.29242,13.29242,0,0,0,397.12,323.97Zm0,0c-1.64-2.1-4.12-3.14-7.45-3.14a8.62986,8.62986,0,0,0-7.25,3.51,18.277,18.277,0,0,0-3.28,9.23l.17.28h20.28v-1.47A13.29242,13.29242,0,0,0,397.12,323.97Zm-66.04-1.5a12.37868,12.37868,0,0,0-6.32-1.53,9.32417,9.32417,0,0,0-8.86,5.38q-2.805,5.38495-2.8,14.05v1.19q0,8.04,2.71,12.66,2.73,4.605,8.84,4.61a13.60917,13.60917,0,0,0,6.43-1.39,10.58816,10.58816,0,0,0,4.22-4.05V326.77A11.46716,11.46716,0,0,0,331.08,322.47ZM282.5,0V294.88H265.25V0H0V512H512V0ZM248.92,370.5H183.67v-9.91l8.78-1.7V299.7l-8.78-1.7v-9.97h65.14v22.6H236.12l-.74-9.85H208.99v20.73h27.92v12.74H208.99v23.56h26.62l.74-9.85h12.57Zm41.18,0H257.64v-9.91l7.99-1.7V320.88l-8.84-1.7v-9.97h25.38V358.89l7.93,1.7Zm61.79-1.81q0,12.11993-7.61,19.34-7.62,7.215-20.93005,7.22a41.56071,41.56071,0,0,1-9.86-1.27,45.576,45.576,0,0,1-9.63-3.49l3.06-11.61a51.50674,51.50674,0,0,0,7.93,2.69,34.48433,34.48433,0,0,0,8.38.99q6.06006,0,9.07-3.68,3-3.675,3-10.25v-4.02a18.58323,18.58323,0,0,1-6.4,5.27,19.00593,19.00593,0,0,1-8.44,1.81q-11.28,0-17.59-8.3-6.315-8.295-6.31-21.83v-1.19q0-14.505,6.31-23.4,6.315-8.88,17.7-8.89a17.533,17.533,0,0,1,9.06,2.3,20.22871,20.22871,0,0,1,6.69,6.54l1.19-7.71h14.38Zm63.9-23.9H379.2l-.12.33a15.93943,15.93943,0,0,0,4.05,9.97q3.6,3.91507,9.77,3.91a32.09593,32.09593,0,0,0,9.12-1.1,41.86382,41.86382,0,0,0,7.93-3.49l4.48,10.2a32.63472,32.63472,0,0,1-9.83,5.04,41.82255,41.82255,0,0,1-13.45,2.04q-13.26,0-21.19-8.5-7.92-8.49005-7.93-21.58v-2.26q0-13.65,7.50995-22.49,7.5-8.835,20.13-8.78,12.405,0,19.26,7.48,6.855,7.47,6.86,20.22Zm49.95-20.96-6.79-.17a11.64813,11.64813,0,0,0-6.01,1.41,9.21029,9.21029,0,0,0-3.62,4.03v29.79l7.93,1.7v9.91h-32.4v-9.91l7.93005-1.7V320.88l-8.78-1.7v-9.97h24.18l.74,8.95a19.35022,19.35022,0,0,1,5.55-7.42,12.43708,12.43708,0,0,1,7.87006-2.66,20.58906,20.58906,0,0,1,2.75.2,16.46976,16.46976,0,0,1,2.41.48Zm-76.07-3a8.62986,8.62986,0,0,0-7.25,3.51,18.277,18.277,0,0,0-3.28,9.23l.17.28h20.28v-1.47a13.29242,13.29242,0,0,0-2.47-8.41C395.48,321.87,393,320.83,389.67,320.83Zm-58.59,1.64a12.37868,12.37868,0,0,0-6.32-1.53,9.32417,9.32417,0,0,0-8.86,5.38q-2.805,5.38495-2.8,14.05v1.19q0,8.04,2.71,12.66,2.73,4.605,8.84,4.61a13.60917,13.60917,0,0,0,6.43-1.39,10.58816,10.58816,0,0,0,4.22-4.05V326.77A11.46716,11.46716,0,0,0,331.08,322.47Zm0,0a12.37868,12.37868,0,0,0-6.32-1.53,9.32417,9.32417,0,0,0-8.86,5.38q-2.805,5.38495-2.8,14.05v1.19q0,8.04,2.71,12.66,2.73,4.605,8.84,4.61a13.60917,13.60917,0,0,0,6.43-1.39,10.58816,10.58816,0,0,0,4.22-4.05V326.77A11.46716,11.46716,0,0,0,331.08,322.47Zm0,0a12.37868,12.37868,0,0,0-6.32-1.53,9.32417,9.32417,0,0,0-8.86,5.38q-2.805,5.38495-2.8,14.05v1.19q0,8.04,2.71,12.66,2.73,4.605,8.84,4.61a13.60917,13.60917,0,0,0,6.43-1.39,10.58816,10.58816,0,0,0,4.22-4.05V326.77A11.46716,11.46716,0,0,0,331.08,322.47Z"/></g></g></g></svg>
